<svg width="35" height="35" viewBox="0 0 35 35" fill="none" xmlns="http://www.w3.org/2000/svg">
<path d="M31.5173 0.35083H2.92092C2.1625 0.35083 1.43514 0.652113 0.898849 1.1884C0.362562 1.72469 0.0612793 2.45205 0.0612793 3.21047V31.8069C0.0612793 32.5653 0.362562 33.2927 0.898849 33.829C1.43514 34.3653 2.1625 34.6665 2.92092 34.6665H31.5173C32.2758 34.6665 33.0031 34.3653 33.5394 33.829C34.0757 33.2927 34.377 32.5653 34.377 31.8069V3.21047C34.377 2.45205 34.0757 1.72469 33.5394 1.1884C33.0031 0.652113 32.2758 0.35083 31.5173 0.35083ZM2.92092 3.21047H31.5173V17.0404L27.1046 12.6258C26.5683 12.09 25.8413 11.7889 25.0832 11.7889C24.3251 11.7889 23.598 12.09 23.0617 12.6258L3.88069 31.8069H2.92092V3.21047ZM31.5173 31.8069H7.9253L25.0832 14.649L31.5173 21.0832V31.8069ZM11.4999 16.0789C12.3482 16.0789 13.1776 15.8273 13.8829 15.356C14.5883 14.8846 15.1381 14.2147 15.4628 13.4309C15.7875 12.6471 15.8724 11.7846 15.7069 10.9526C15.5414 10.1205 15.1329 9.35618 14.533 8.75629C13.9331 8.1564 13.1688 7.74787 12.3367 7.58236C11.5046 7.41685 10.6421 7.50179 9.85834 7.82645C9.07455 8.15111 8.40462 8.7009 7.93329 9.4063C7.46196 10.1117 7.21039 10.941 7.21039 11.7894C7.21039 12.927 7.66231 14.0181 8.46674 14.8225C9.27117 15.6269 10.3622 16.0789 11.4999 16.0789ZM11.4999 10.3596C11.7826 10.3596 12.0591 10.4434 12.2942 10.6005C12.5294 10.7577 12.7126 10.981 12.8208 11.2422C12.9291 11.5035 12.9574 11.791 12.9022 12.0683C12.847 12.3457 12.7109 12.6005 12.5109 12.8004C12.3109 13.0004 12.0562 13.1366 11.7788 13.1917C11.5014 13.2469 11.2139 13.2186 10.9527 13.1104C10.6914 13.0022 10.4681 12.8189 10.311 12.5838C10.1539 12.3486 10.07 12.0722 10.07 11.7894C10.07 11.4102 10.2207 11.0465 10.4888 10.7784C10.757 10.5102 11.1206 10.3596 11.4999 10.3596Z" fill="#0D0C0C"/>
</svg>
